<svg width="64" height="64" viewBox="0 0 64 64" fill="none" xmlns="http://www.w3.org/2000/svg">
    <g clip-path="url(#clip0_1_26)">
        <path d="M52 0H12C5.37258 0 0 5.37258 0 12V52C0 58.6274 5.37258 64 12 64H52C58.6274 64 64 58.6274 64 52V12C64 5.37258 58.6274 0 52 0Z" fill="url(#paint0_linear_1_26)"/>
        <path d="M46 16H14C12.8954 16 12 16.8954 12 18V42C12 43.1046 12.8954 44 14 44H46C47.1046 44 48 43.1046 48 42V18C48 16.8954 47.1046 16 46 16Z" fill="white" fill-opacity="0.15"/>
        <path d="M48 18H16C14.8954 18 14 18.8954 14 20V44C14 45.1046 14.8954 46 16 46H48C49.1046 46 50 45.1046 50 44V20C50 18.8954 49.1046 18 48 18Z" fill="white" fill-opacity="0.2"/>
        <path d="M50 20H18C16.8954 20 16 20.8954 16 22V46C16 47.1046 16.8954 48 18 48H50C51.1046 48 52 47.1046 52 46V22C52 20.8954 51.1046 20 50 20Z" fill="white"/>
        <path d="M20 40L28 28L34 36L40 30L48 40H20Z" fill="url(#paint1_linear_1_26)"/>
        <path d="M42 29C43.6569 29 45 27.6569 45 26C45 24.3431 43.6569 23 42 23C40.3431 23 39 24.3431 39 26C39 27.6569 40.3431 29 42 29Z" fill="#FCD34D"/>
        <path d="M50 42L54 46L52 48L48 44L50 42Z" fill="#EF4444"/>
        <path d="M49.2929 45.8787C48.9024 45.4882 48.2692 45.4882 47.8787 45.8787C47.4882 46.2692 47.4882 46.9024 47.8787 47.2929L50.7071 50.1213C51.0976 50.5118 51.7308 50.5118 52.1213 50.1213C52.5118 49.7308 52.5118 49.0976 52.1213 48.7071L49.2929 45.8787Z" fill="#EF4444"/>
    </g>
    <defs>
        <linearGradient id="paint0_linear_1_26" x1="0" y1="0" x2="64" y2="64" gradientUnits="userSpaceOnUse">
            <stop stop-color="#3B82F6"/>
            <stop offset="1" stop-color="#1D4ED8"/>
        </linearGradient>
        <linearGradient id="paint1_linear_1_26" x1="20" y1="28" x2="28.6897" y2="48.2759" gradientUnits="userSpaceOnUse">
            <stop stop-color="#60A5FA"/>
            <stop offset="1" stop-color="#3B82F6"/>
        </linearGradient>
        <clipPath id="clip0_1_26">
            <rect width="64" height="64" fill="white"/>
        </clipPath>
    </defs>
</svg>
